<svg width="4" height="4" viewBox="0 0 4 4" fill="none" xmlns="http://www.w3.org/2000/svg">
<path d="M0.666669 3.33332C0.575003 3.33332 0.49653 3.30068 0.431253 3.23541C0.365975 3.17013 0.333336 3.09166 0.333336 2.99999V0.99999C0.333336 0.908323 0.365975 0.829851 0.431253 0.764573C0.49653 0.699295 0.575003 0.666656 0.666669 0.666656H1.66667L2 0.99999H3.33334C3.425 0.99999 3.50347 1.03263 3.56875 1.09791C3.63403 1.16318 3.66667 1.24166 3.66667 1.33332V2.99999C3.66667 3.09166 3.63403 3.17013 3.56875 3.23541C3.50347 3.30068 3.425 3.33332 3.33334 3.33332H0.666669ZM0.666669 2.99999H3.33334V1.33332H1.8625L1.52917 0.99999H0.666669V2.99999Z" fill="#1D1B20"/>
</svg>
